<?xml version="1.0" standalone="no"?>
<!DOCTYPE svg PUBLIC "-//W3C//DTD SVG 20010904//EN"
 "http://www.w3.org/TR/2001/REC-SVG-20010904/DTD/svg10.dtd">
<svg version="1.0" xmlns="http://www.w3.org/2000/svg"
 width="200.000000pt" height="200.000000pt" viewBox="0 0 200.000000 200.000000"
 preserveAspectRatio="xMidYMid meet">
<metadata>
Created by potrace 1.14, written by Peter Selinger 2001-2017
</metadata>
<g transform="translate(0.000000,200.000000) scale(0.100000,-0.100000)"
fill="#000000" stroke="none">
<path d="M313 1908 c-50 -24 -50 -23 -48 -908 2 -454 3 -835 4 -848 0 -13 12
-34 26 -47 l24 -25 688 0 c525 1 692 4 704 13 39 30 39 30 39 909 0 793 -2
854 -18 874 -9 12 -27 27 -39 33 -30 15 -1348 14 -1380 -1z m1387 -38 c20 -20
20 -33 20 -873 0 -847 0 -853 -21 -875 l-20 -22 -675 2 -675 3 -18 24 c-18 23
-18 67 -17 874 l1 849 24 19 c22 18 48 19 692 19 656 0 669 0 689 -20z"/>
<path d="M398 1799 c-8 -5 -11 -254 -10 -795 0 -434 1 -795 1 -801 1 -10 132
-13 621 -13 l620 0 0 805 0 805 -22 1 c-126 4 -1203 2 -1210 -2z m1200 -142
l3 -117 -35 0 c-28 0 -35 4 -40 25 -8 33 -41 65 -66 65 -11 0 -29 -9 -39 -19
-19 -19 -20 -19 -37 0 -9 10 -26 19 -36 19 -25 0 -68 -44 -68 -70 0 -19 -5
-20 -204 -20 l-204 0 -19 37 c-24 50 -65 66 -94 36 -21 -20 -22 -20 -40 -2
-24 24 -54 24 -78 0 -19 -19 -20 -19 -37 0 -9 10 -26 19 -36 19 -25 0 -68 -44
-68 -70 0 -19 -5 -21 -42 -18 l-43 3 0 105 c-1 58 0 110 2 115 2 7 208 10 591
10 l587 0 3 -118z m-999 -91 c25 -52 -16 -143 -50 -109 -20 20 -27 79 -13 112
17 40 43 38 63 -3z m111 15 c5 -11 10 -36 10 -56 0 -45 -15 -75 -39 -75 -37 0
-56 97 -24 132 21 23 40 23 53 -1z m110 4 c20 -24 18 -101 -2 -121 -47 -48
-92 68 -47 123 15 17 34 17 49 -2z m556 -10 c27 -41 5 -125 -32 -125 -20 0
-42 50 -37 84 10 67 40 85 69 41z m106 8 c32 -29 17 -133 -20 -133 -33 0 -52
73 -32 124 11 30 26 33 52 9z m-982 -93 c0 -26 43 -70 68 -70 10 0 27 9 36 19
17 19 18 19 37 0 10 -10 28 -19 39 -19 11 0 29 9 39 19 19 19 20 19 37 0 34
-37 80 -18 103 44 l11 27 205 0 c193 0 205 -1 205 -19 0 -28 39 -71 64 -71 13
0 31 9 40 19 17 19 18 19 37 0 10 -10 28 -19 39 -19 25 0 58 32 66 65 5 21 12
25 40 25 l34 0 0 -117 0 -118 -251 0 -251 0 -15 36 c-8 20 -24 41 -36 46 -23
11 -60 2 -72 -17 -5 -8 -13 -6 -26 6 -24 21 -69 21 -81 0 -9 -16 -11 -16 -29
0 -24 22 -64 21 -89 -1 -11 -10 -20 -14 -20 -8 0 5 -12 15 -26 22 -34 15 -68
-5 -88 -52 l-13 -33 -86 1 c-47 0 -89 4 -94 8 -4 5 -8 58 -8 118 l0 109 43 0
c36 0 42 -3 42 -20z m220 -227 c0 -44 -16 -73 -40 -73 -43 0 -56 94 -18 132
l21 21 19 -23 c10 -12 18 -38 18 -57z m109 34 c11 -33 10 -46 -3 -84 -19 -57
-84 -2 -72 62 13 68 56 81 75 22z m117 -2 c8 -33 -3 -90 -21 -105 -40 -33 -77
89 -39 131 21 23 51 10 60 -26z m116 -36 c-1 -33 -6 -48 -23 -62 -20 -16 -24
-17 -38 -2 -24 24 -22 112 4 131 30 22 58 -11 57 -67z m-447 -41 c8 -34 50
-69 73 -61 9 3 25 13 34 21 15 13 19 12 33 -2 22 -21 71 -21 84 1 9 16 11 16
28 2 30 -27 50 -29 76 -9 21 17 27 17 36 6 31 -37 83 -18 107 39 l13 33 251
-1 250 0 0 -119 0 -118 -75 0 c-67 0 -75 2 -75 19 0 10 -9 30 -21 45 -36 45
-89 28 -111 -36 -9 -25 -14 -28 -58 -28 -44 0 -49 3 -58 28 -20 59 -67 79
-104 45 -17 -15 -19 -15 -36 0 -24 22 -57 22 -79 0 -17 -17 -19 -17 -35 0 -37
36 -89 13 -103 -45 -7 -27 -10 -28 -70 -28 l-63 0 -12 35 c-18 53 -65 71 -102
38 -17 -15 -19 -15 -36 0 -10 10 -27 17 -37 17 -25 0 -65 -39 -65 -62 0 -22
-29 -36 -39 -20 -5 9 -7 222 -2 228 1 1 44 1 96 1 l94 0 6 -29z m-66 -162 c26
-32 15 -118 -16 -131 -24 -9 -44 17 -48 61 -6 63 34 106 64 70z m115 -8 c30
-42 10 -128 -29 -128 -33 0 -50 78 -28 123 16 33 37 35 57 5z m264 13 c22 -14
27 -87 8 -116 -9 -14 -21 -25 -26 -25 -21 0 -40 34 -40 71 0 65 23 93 58 70z
m121 -9 c25 -48 11 -132 -23 -132 -22 0 -46 40 -46 75 0 58 48 97 69 57z m119
-12 c14 -28 10 -84 -9 -106 -28 -34 -61 0 -62 67 -2 66 43 91 71 39z m241 12
c26 -48 11 -132 -23 -132 -26 0 -49 46 -43 86 10 60 45 84 66 46z m-948 -99
c23 -61 63 -79 97 -45 18 18 19 18 42 0 12 -10 30 -18 39 -18 21 0 58 38 63
65 3 17 12 20 69 23 64 3 67 2 73 -23 8 -33 41 -65 66 -65 10 0 28 9 38 20
l19 20 18 -20 c22 -24 43 -25 73 -5 19 14 24 14 47 -1 21 -13 31 -15 50 -6 25
12 59 65 48 76 -4 3 19 6 49 6 53 0 57 -2 66 -29 6 -16 23 -37 37 -47 25 -16
30 -16 54 -3 14 8 30 29 36 47 l9 32 73 0 74 0 -3 -117 -3 -117 -65 -1 c-88
-1 -98 2 -110 40 -12 35 -46 57 -78 48 -11 -2 -28 -21 -38 -41 -11 -21 -22
-39 -26 -42 -5 -4 -404 -5 -430 -1 -5 1 -8 9 -8 19 -1 23 -30 58 -56 66 -14 4
-30 0 -45 -13 -23 -18 -24 -18 -49 1 -23 16 -30 17 -53 7 -16 -7 -31 -25 -37
-45 -7 -19 -15 -35 -18 -35 -38 -7 -155 -2 -160 6 -4 5 -7 58 -7 118 0 97 1
107 17 107 11 0 23 -12 29 -27z m223 -165 c31 -44 15 -128 -24 -128 -24 0 -40
29 -40 72 0 33 23 78 40 78 5 0 16 -10 24 -22z m111 2 c20 -22 23 -93 4 -116
-17 -21 -44 -17 -56 9 -20 43 -2 127 27 127 4 0 15 -9 25 -20z m589 -2 c31
-44 15 -128 -24 -128 -25 0 -40 29 -40 76 0 34 22 74 41 74 4 0 15 -10 23 -22z
m-794 -88 c0 -9 9 -29 21 -44 23 -29 69 -35 89 -11 11 13 15 13 33 0 43 -30
83 -13 106 46 l10 26 220 0 c201 0 221 -2 221 -17 0 -10 9 -29 21 -44 37 -47
98 -29 114 35 6 26 8 27 91 26 l84 -1 0 -116 0 -117 -155 0 c-149 0 -155 1
-161 21 -17 57 -75 83 -109 50 -15 -15 -17 -15 -34 0 -23 21 -59 21 -82 0 -17
-15 -19 -15 -34 0 -34 34 -81 13 -104 -46 -9 -25 -14 -27 -70 -26 -59 1 -61 2
-72 35 -17 51 -70 70 -104 37 -15 -15 -17 -15 -35 1 -32 29 -72 16 -95 -31
-19 -39 -22 -40 -72 -42 -43 -1 -53 2 -54 16 -3 36 -5 207 -2 213 1 3 41 6 88
7 75 0 85 -2 85 -18z m41 -181 c18 -35 13 -89 -11 -113 l-21 -21 -20 24 c-22
26 -25 68 -7 106 14 31 43 33 59 4z m118 -11 c18 -55 -5 -118 -41 -118 -16 0
-36 64 -31 95 12 63 54 76 72 23z m269 7 c17 -37 15 -79 -6 -105 -21 -25 -49
-19 -58 14 -11 47 -11 62 3 89 17 34 46 35 61 2z m112 6 c18 -34 12 -96 -11
-117 -21 -19 -21 -18 -40 5 -21 25 -24 66 -9 105 11 31 45 35 60 7z m119 -15
c11 -23 11 -37 2 -67 -13 -42 -22 -52 -44 -43 -49 19 -38 152 12 142 9 -2 22
-16 30 -32z m-714 -78 c18 -58 84 -85 109 -45 8 13 13 12 38 -6 23 -17 31 -19
53 -9 14 7 33 28 41 47 14 35 15 35 77 35 l63 0 13 -36 c18 -50 53 -64 90 -36
25 18 30 19 43 6 22 -23 55 -24 73 -4 17 19 18 18 47 -3 27 -20 31 -20 56 -7
15 9 31 29 37 48 l9 32 158 0 158 0 0 -115 0 -115 -592 2 -593 3 0 105 c-1 58
1 108 3 113 2 4 27 7 57 7 47 0 55 -3 60 -22z"/>
</g>
</svg>
